<?xml version="1.0" encoding="UTF-8"?>
<!DOCTYPE svg PUBLIC "-//W3C//DTD SVG 1.1//EN" "http://www.w3.org/Graphics/SVG/1.1/DTD/svg11.dtd">
<svg xmlns="http://www.w3.org/2000/svg" version="1.1" width="512px" height="512px" style="shape-rendering:geometricPrecision; text-rendering:geometricPrecision; image-rendering:optimizeQuality; fill-rule:evenodd; clip-rule:evenodd" xmlns:xlink="http://www.w3.org/1999/xlink">
<g><path style="opacity:1" fill="#3f403f" d="M 203.5,63.5 C 215.679,62.5044 226.346,66.0044 235.5,74C 286.667,125.167 337.833,176.333 389,227.5C 401.815,244.333 402.815,261.667 392,279.5C 338.167,333.333 284.333,387.167 230.5,441C 217.014,449.263 203.348,449.597 189.5,442C 181.697,435.198 174.197,428.031 167,420.5C 156.8,404.917 157.133,389.584 168,374.5C 207.68,334.986 247.18,295.32 286.5,255.5C 247.18,215.68 207.68,176.014 168,136.5C 158.142,122.816 157.142,108.483 165,93.5C 171.802,85.697 178.969,78.197 186.5,71C 191.782,67.3532 197.448,64.8532 203.5,63.5 Z"/></g>
</svg>
