<?xml version="1.0" encoding="UTF-8"?>
<!DOCTYPE svg PUBLIC "-//W3C//DTD SVG 1.1//EN" "http://www.w3.org/Graphics/SVG/1.1/DTD/svg11.dtd">
<svg xmlns="http://www.w3.org/2000/svg" version="1.1" width="512px" height="512px" style="shape-rendering:geometricPrecision; text-rendering:geometricPrecision; image-rendering:optimizeQuality; fill-rule:evenodd; clip-rule:evenodd" xmlns:xlink="http://www.w3.org/1999/xlink">
<g><path style="opacity:1" fill="#3f403f" d="M 295.5,63.5 C 304.742,62.7148 313.408,64.5481 321.5,69C 329.303,75.8019 336.803,82.9686 344,90.5C 354.2,106.083 353.867,121.416 343,136.5C 303.32,176.014 263.82,215.68 224.5,255.5C 263.82,295.32 303.32,334.986 343,374.5C 353.867,389.584 354.2,404.917 344,420.5C 336.803,428.031 329.303,435.198 321.5,442C 305.038,450.573 289.705,448.906 275.5,437C 224.333,385.833 173.167,334.667 122,283.5C 109.185,266.667 108.185,249.333 119,231.5C 172.833,177.667 226.667,123.833 280.5,70C 285.367,67.2259 290.367,65.0593 295.5,63.5 Z"/></g>
</svg>
