<?xml version="1.0" encoding="UTF-8"?>
<!DOCTYPE svg PUBLIC "-//W3C//DTD SVG 1.1//EN" "http://www.w3.org/Graphics/SVG/1.1/DTD/svg11.dtd">
<svg xmlns="http://www.w3.org/2000/svg" version="1.1" width="512px" height="461px" style="shape-rendering:geometricPrecision; text-rendering:geometricPrecision; image-rendering:optimizeQuality; fill-rule:evenodd; clip-rule:evenodd" xmlns:xlink="http://www.w3.org/1999/xlink">
<g><path style="opacity:1" fill="#3f403f" d="M 119.5,-0.5 C 132.167,-0.5 144.833,-0.5 157.5,-0.5C 187.96,6.06309 214.96,19.5631 238.5,40C 243.788,45.6335 249.455,50.8001 255.5,55.5C 274.196,36.6494 295.529,21.4828 319.5,10C 330.664,5.55367 341.997,2.05367 353.5,-0.5C 366.167,-0.5 378.833,-0.5 391.5,-0.5C 458.757,13.4236 498.757,54.0903 511.5,121.5C 511.5,134.5 511.5,147.5 511.5,160.5C 505.634,203.595 491.134,243.595 468,280.5C 438.186,325.654 402.02,365.154 359.5,399C 334.271,418.892 307.937,437.225 280.5,454C 275.633,456.774 270.633,458.941 265.5,460.5C 258.833,460.5 252.167,460.5 245.5,460.5C 240.367,458.941 235.367,456.774 230.5,454C 188.616,427.792 149.283,398.125 112.5,365C 77.0959,331.284 48.2626,292.784 26,249.5C 12.5635,221.109 3.7302,191.442 -0.5,160.5C -0.5,147.5 -0.5,134.5 -0.5,121.5C 12.2426,54.0903 52.2426,13.4236 119.5,-0.5 Z M 127.5,47.5 C 137.541,47.2443 147.541,47.7443 157.5,49C 176.993,55.4081 194.326,65.4081 209.5,79C 219.9,88.7305 229.567,99.0639 238.5,110C 254.872,120.899 268.372,118.065 279,101.5C 293.888,84.8367 310.722,70.67 329.5,59C 372.214,38.4271 409.881,45.2604 442.5,79.5C 461.872,104.332 468.372,132.332 462,163.5C 455.232,200.027 441.565,233.693 421,264.5C 388.18,309.653 349.014,348.486 303.5,381C 287.671,391.749 271.671,402.249 255.5,412.5C 201.176,380.017 153.009,340.017 111,292.5C 82.3072,258.118 62.3072,219.118 51,175.5C 47.5976,156.925 46.9309,138.258 49,119.5C 57.8507,85.8058 78.6841,62.9725 111.5,51C 116.871,49.362 122.204,48.1953 127.5,47.5 Z"/></g>
</svg>
