<?xml version="1.0" encoding="UTF-8"?>
<!DOCTYPE svg PUBLIC "-//W3C//DTD SVG 1.1//EN" "http://www.w3.org/Graphics/SVG/1.1/DTD/svg11.dtd">
<svg xmlns="http://www.w3.org/2000/svg" version="1.1" width="1024px" height="1024px" style="shape-rendering:geometricPrecision; text-rendering:geometricPrecision; image-rendering:optimizeQuality; fill-rule:evenodd; clip-rule:evenodd" xmlns:xlink="http://www.w3.org/1999/xlink">
<g><path style="opacity:1" fill="#3f403f" d="M 503.5,-0.5 C 508.833,-0.5 514.167,-0.5 519.5,-0.5C 529.853,2.68292 537.686,9.01625 543,18.5C 585.624,125.362 628.457,232.196 671.5,339C 777.833,339.333 884.167,339.667 990.5,340C 1007.77,341.781 1018.77,350.947 1023.5,367.5C 1023.5,372.833 1023.5,378.167 1023.5,383.5C 1021.97,387.51 1020.14,391.51 1018,395.5C 930.986,482.347 844.153,569.347 757.5,656.5C 800.6,763.613 843.433,870.946 886,978.5C 890.203,1001.41 881.369,1016.41 859.5,1023.5C 854.5,1023.5 849.5,1023.5 844.5,1023.5C 835.486,1019.83 826.819,1015.33 818.5,1010C 716.252,948.086 613.752,886.586 511,825.5C 408.803,887.048 306.636,948.548 204.5,1010C 195.986,1015.59 186.986,1020.09 177.5,1023.5C 172.5,1023.5 167.5,1023.5 162.5,1023.5C 141.163,1015.95 132.663,1000.95 137,978.5C 179.629,868.283 222.463,758.116 265.5,648C 178.587,563.751 91.7534,479.584 5,395.5C 2.85837,391.51 1.02503,387.51 -0.5,383.5C -0.5,378.167 -0.5,372.833 -0.5,367.5C 4.21046,350.968 15.2105,341.802 32.5,340C 138.833,339.667 245.167,339.333 351.5,339C 394.782,230.838 438.282,122.671 482,14.5C 483.713,13.1218 485.047,11.4552 486,9.5C 491.228,4.97335 497.061,1.64001 503.5,-0.5 Z M 510.5,129.5 C 511.75,129.577 512.583,130.244 513,131.5C 547.205,217.121 581.205,302.788 615,388.5C 621.044,401.547 631.21,408.714 645.5,410C 731.5,410.333 817.5,410.667 903.5,411C 832,482.5 760.5,554 689,625.5C 682.275,634.404 679.942,644.404 682,655.5C 683.131,659.894 684.465,664.227 686,668.5C 718.141,746.939 749.474,825.605 780,904.5C 697.584,855.377 615.418,805.877 533.5,756C 526.473,752.381 519.14,749.881 511.5,748.5C 503.81,749.761 496.477,752.261 489.5,756C 406.812,806.497 323.812,856.164 240.5,905C 274.555,819.187 308.055,733.021 341,646.5C 343.058,635.404 340.725,625.404 334,616.5C 263.604,547.774 192.77,479.274 121.5,411C 206.833,410.667 292.167,410.333 377.5,410C 391.798,408.704 401.964,401.537 408,388.5C 442.161,302.175 476.328,215.842 510.5,129.5 Z"/></g>
</svg>
